/* XPM */
static char*kworldwatch[]={
"32 32 17 1",
"l c #ffa858",
"k c #000080",
"i c #c0c000",
"f c #004000",
"c c #808000",
"e c #c05800",
"g c #c0c0ff",
"# c #000000",
"j c #ff8000",
"d c #0000c0",
"m c #ffff00",
"b c #ffdca8",
"h c #0000ff",
". c None",
"o c #585858",
"n c #dcdcdc",
"a c #ffffff",
"............#######.............",
".........###aaaaaaa###..........",
".......##abaaacbaabbab##........",
"......#abbddbaecebbcbaba#.......",
".....#bbceceebaeceeefaaba#......",
"....#gdcececebeabcdcebaefa#.....",
"...#hdieijdeeeejijkdcebaaee#....",
"..#hdjejddjdddeejijkjceceeba#...",
"..#ghdjddddjdddjijljlecebaec#...",
".#ghdddeeddddddjljkljljcbacjc#..",
".#gdheijiedeedelblbddddjibaej#..",
".#dhelbmljljledllblblddddjcje#..",
"#hdelblblbjbjledjlbljddddijidh#.",
"#dheblblblbjbjledljdddddddidhd#.",
"#hdeiblbjbjbllijddddddddddihdh#.",
"#ghdeceeljbllcjilijdddddddddid#.",
"#gdhddddcjjjcjcjildddddddddhdh#.",
"#ghddddddcjcjcjilddddddgagddhd#.",
"#hghgddddecjcjclddddddgdddghdh#.",
".#hgagdddjjcjeldddddddgagdhghd..",
".#gadddddlcjcllddddddddgagdhd#..",
".#gahdgddljejejddjddgdddddgdh#..",
"..#aghdgddnnnnnnnnnnnnnnnnnnnnnn",
"..#gadhggdn####################o",
"...#agdhadn####################o",
"....#ggggdn##a##a#####aa###aa##o",
".....#gaagn##a##a##a####a#a##a#o",
"......#gagn##a##a######a###aa##o",
".......##gn##a##a##a####a#a##a#o",
".........#n##a##a#####aa###aa##o",
"..........n####################o",
"..........nooooooooooooooooooooo"};
