/* XPM */
static char*kworldwatch[]={
"32 32 18 1",
"k c #ffa858",
"l c #000080",
"h c #c0c000",
"f c #004000",
"c c #808000",
"e c #c05800",
"g c #c0c0ff",
"# c #000000",
"i c #ff8000",
"d c #0000c0",
"n c #ffff00",
"b c #ffdca8",
"m c #ffffc0",
"j c #0000ff",
". c None",
"p c #585858",
"o c #dcdcdc",
"a c #ffffff",
"............#######.............",
".........###aaaaaaa###..........",
".......##abaaacbaabbab##........",
"......#abbddbaecebbcbaba#.......",
".....#bbceceebaeceeefaaba#......",
"....#gdcehicebeabcdcebaefa#.....",
"...#jdhihidihehkhildcebaaee#....",
"..#jdhihdlkldlkeihiliceceeba#...",
"..#jjdhdldlildlihikihecebaec#...",
".#jjdldeeldldldhkilmikicbacic#..",
".#jdjdhiheleedekhkbllllihbaei#..",
".#jjckbnkikhkedkkbkbkldldicic#..",
"#jdckbkbkbkbhkedikbkilldlhihdj#.",
"#jjcbkbkbkbkbikedkildldlddhdjj#.",
"#jdchbkbkbkbkkhildldldldldhjdj#.",
"#gjdehickhkhkhihkbeldldlddjdhj#.",
"#gdjddldcihkhihkbeldldldlddjdj#.",
"#gjdjldldhihihkbeldldllgagjdjj#.",
"#jgjgdldlchihkbildldldglldgjdj#.",
".#jgagdldcihihildldldlgagdjgj#..",
".#gadjldlkhkhkkdldldgdlgagdjj#..",
".#gajdgldhkbkbildhdlgldlddgdj#..",
"..#agjdgldoooooooooooooooooooooo",
"..#gadjgglo####################p",
"...#agdjado####################p",
"....#gggggo##a##a#####aa###aa##p",
".....#gaago##a##a##a####a#a##a#p",
"......#gago##a##a######a###aa##p",
".......##go##a##a##a####a#a##a#p",
".........#o##a##a#####aa###aa##p",
"..........o####################p",
"..........oppppppppppppppppppppp"};
