/* XPM */
static char*earth[]={
"32 32 16 1",
"l c #ffa858",
"k c #000080",
"i c #c0c000",
"f c #004000",
"c c #808000",
"e c #c05800",
"g c #c0c0ff",
"# c #000000",
"j c #ff8000",
"d c #0000c0",
"b c #ffdca8",
"h c #0000ff",
". c None",
"n c #585858",
"m c #dcdcdc",
"a c #ffffff",
"............#######.............",
".........###aaaaaaa###..........",
".......##abaaacbaabbab##........",
"......#abbddbaecebbcbaba#.......",
".....#bbceceebaeceeefaaba#......",
"....#gdcececebeabcdcebaefa#.....",
"...#hdieijdeeeejijkdcebaaee#....",
"..#hdjejddjdddeejijkjceceeba#...",
"..#ghdjddddjdddjijljlecebaec#...",
".#ghdddeeddddddjljkljljcbacjc#..",
".#gdhejjjedeedelblbddddjibaej#..",
".#dhelbjljljledllblblddddjcje#..",
"#hdelblblbjbjledjlbljddddijidh#.",
"#dheblblblbjbjledljdddddddidhd#.",
"#hdejljbjbjjlljjddddddddddjhdh#.",
"#ghdejeeljljlcjcjjjdddddddddjd#.",
"#gdhddddcjjjcjcjjldddddddddhdh#.",
"#ghddddddcjcjcjjlddddddgagddhd#.",
"#hghgddddecjcjclddddddgdddghdh#.",
".#hgagdddjjcjeldddddddgagdhghd..",
".#gadddddlcjellddddddddgagdhd#..",
".#gahdgddljejejddjddgdddddgdh#..",
"..#aghdgddmmmmmmmmmmmmmmmmmmmmmm",
"..#gadhggdm####################n",
"...#agdhadm####################n",
"....#ggggdm##a##a#####aa###aa##n",
".....#gaagm##a##a##a####a#a##a#n",
"......#gagm##a##a######a###aa##n",
".......##gm##a##a##a####a#a##a#n",
".........#m##a##a#####aa###aa##n",
"..........m####################n",
"..........mnnnnnnnnnnnnnnnnnnnnn"};
