/* XPM */
static char * kworldwatch_xpm[] = {
"32 32 244 2",
"  	c None",
". 	c #020204",
"+ 	c #D2DEDC",
"@ 	c #D1D3D7",
"# 	c #ADD1EC",
"$ 	c #87BBDC",
"% 	c #4E9AD1",
"& 	c #8E9EA4",
"* 	c #C8EAFC",
"= 	c #EEF2FC",
"- 	c #8D9BCF",
"; 	c #AACAF4",
"> 	c #DAE8FC",
", 	c #5E95E9",
"' 	c #AAC5E4",
") 	c #4A86CC",
"! 	c #719CDE",
"~ 	c #86B2F4",
"{ 	c #3276C4",
"] 	c #184A84",
"^ 	c #152424",
"/ 	c #547CB4",
"( 	c #8ED2F4",
"_ 	c #508CFC",
": 	c #8EC6FC",
"< 	c #A6CAF4",
"[ 	c #162E9C",
"} 	c #7AA4D0",
"| 	c #E2F5FC",
"1 	c #3A6ED4",
"2 	c #B6CEF4",
"3 	c #4E9EF4",
"4 	c #9AC2F4",
"5 	c #7C9EE8",
"6 	c #487ED8",
"7 	c #4A7ABC",
"8 	c #1C4470",
"9 	c #0E1314",
"0 	c #060C10",
"a 	c #A0D8F6",
"b 	c #75BCF6",
"c 	c #5298F4",
"d 	c #1242CC",
"e 	c #96B5E7",
"f 	c #6486D4",
"g 	c #1864DC",
"h 	c #B6C6EC",
"i 	c #FAFDFC",
"j 	c #87ABEC",
"k 	c #86A6F0",
"l 	c #5D85CA",
"m 	c #0B1624",
"n 	c #A8A8A4",
"o 	c #A6A67C",
"p 	c #6698C8",
"q 	c #638DD9",
"r 	c #A6DEFC",
"s 	c #C6EFFA",
"t 	c #3A6A8C",
"u 	c #4A7098",
"v 	c #3C5864",
"w 	c #091A30",
"x 	c #3A86EC",
"y 	c #2A7CF0",
"z 	c #FEDD92",
"A 	c #999B96",
"B 	c #7D7E77",
"C 	c #BAB26C",
"D 	c #1E5088",
"E 	c #366EB4",
"F 	c #7F8ECC",
"G 	c #8E9698",
"H 	c #66625C",
"I 	c #30627C",
"J 	c #567E74",
"K 	c #627678",
"L 	c #46525C",
"M 	c #222824",
"N 	c #051319",
"O 	c #6EB2BC",
"P 	c #266AF4",
"Q 	c #022ED4",
"R 	c #E1AE39",
"S 	c #95938F",
"T 	c #5868BC",
"U 	c #E8BE60",
"V 	c #4266AC",
"W 	c #4A8ED4",
"X 	c #485C80",
"Y 	c #726674",
"Z 	c #92A68C",
"` 	c #B2D6CC",
" .	c #367AD4",
"..	c #969377",
"+.	c #767A54",
"@.	c #6E8494",
"#.	c #829A84",
"$.	c #808664",
"%.	c #5E7254",
"&.	c #0E2E1C",
"*.	c #2A72F4",
"=.	c #0236D4",
"-.	c #243CC0",
";.	c #6A7ED4",
">.	c #B6B7B9",
",.	c #57A2F7",
"'.	c #1A72E8",
").	c #0A469C",
"!.	c #C2AA4C",
"~.	c #E2BE34",
"{.	c #BFA554",
"].	c #AA8644",
"^.	c #968448",
"/.	c #426A5C",
"(.	c #3A423C",
"_.	c #1A62A4",
":.	c #76C2FC",
"<.	c #6E8CDC",
"[.	c #476FB2",
"}.	c #EAAE7C",
"|.	c #FEF294",
"1.	c #9AA4B4",
"2.	c #4C60D4",
"3.	c #4A468C",
"4.	c #EEC24C",
"5.	c #FECD61",
"6.	c #FCD269",
"7.	c #CAB65C",
"8.	c #F2BA0C",
"9.	c #D2A224",
"0.	c #AE964C",
"a.	c #9E8A64",
"b.	c #928E7C",
"c.	c #748EB0",
"d.	c #62685C",
"e.	c #0A1A22",
"f.	c #2282FC",
"g.	c #3597F1",
"h.	c #FECA9C",
"i.	c #FCDB7E",
"j.	c #FDD47A",
"k.	c #E6C2AC",
"l.	c #E1DED1",
"m.	c #F2E2C4",
"n.	c #8E8E8C",
"o.	c #CEB484",
"p.	c #72767C",
"q.	c #425E54",
"r.	c #5E8AA4",
"s.	c #6E7294",
"t.	c #05142C",
"u.	c #66B1F9",
"v.	c #FCCD79",
"w.	c #FEE496",
"x.	c #FEEDAE",
"y.	c #E6C884",
"z.	c #A68EA4",
"A.	c #6E7A94",
"B.	c #164ABC",
"C.	c #7688C4",
"D.	c #4A563C",
"E.	c #1E1E1C",
"F.	c #C8CCD4",
"G.	c #FBD692",
"H.	c #FEDE9C",
"I.	c #FBC563",
"J.	c #FEC254",
"K.	c #FCBE18",
"L.	c #FCC434",
"M.	c #A6927C",
"N.	c #104E84",
"O.	c #A2AEE4",
"P.	c #2A4A54",
"Q.	c #0A231F",
"R.	c #FED2AC",
"S.	c #B0AEA8",
"T.	c #5485CC",
"U.	c #E4C25C",
"V.	c #142688",
"W.	c #2A5AA4",
"X.	c #1C5448",
"Y.	c #3D3B3C",
"Z.	c #263028",
"`.	c #92DADC",
" +	c #BCDCEC",
".+	c #FEB63C",
"++	c #829AB4",
"@+	c #36568C",
"#+	c #041C89",
"$+	c #043487",
"%+	c #5A96C4",
"&+	c #063E4C",
"*+	c #EBEDEC",
"=+	c #F6BE54",
"-+	c #E0BC64",
";+	c #E1BD57",
">+	c #E9B43C",
",+	c #B2AA8C",
"'+	c #C2BA78",
")+	c #02228C",
"!+	c #02326C",
"~+	c #022654",
"{+	c #4EAEFC",
"]+	c #A6BED4",
"^+	c #FEF6CC",
"/+	c #EACA84",
"(+	c #E1B54F",
"_+	c #D4BA78",
":+	c #9E9EC4",
"<+	c #062C84",
"[+	c #1A5AB4",
"}+	c #16161C",
"|+	c #DAD294",
"1+	c #FECE54",
"2+	c #D2C27C",
"3+	c #2E3E8C",
"4+	c #021484",
"5+	c #062A54",
"6+	c #328EDC",
"7+	c #0252E8",
"8+	c #166CE8",
"9+	c #2262D4",
"0+	c #ECC26A",
"a+	c #0C4894",
"b+	c #329EDC",
"c+	c #66A4F4",
"d+	c #96BCEC",
"e+	c #3266D4",
"f+	c #16327C",
"g+	c #2642AC",
"h+	c #1D53A7",
"i+	c #1E4694",
"j+	c #16365C",
"k+	c #9CD0F8",
"l+	c #A4D0E8",
"m+	c #2A4694",
"n+	c #BAE6FC",
"o+	c #F2F2F4",
"p+	c #C4C4C4",
"q+	c #828284",
"r+	c #AEE4F8",
"s+	c #027274",
"t+	c #C2FEFC",
"u+	c #84C4F0",
"                        . . . . . . . .                         ",
"                  . . . + + + + @ # $ % . . .                   ",
"              . . & * = # - ; > , ' ) ! ~ { ] ^ .               ",
"            . / ( _ : < [ } > | 1 2 3 4 5 6 7 8 9 0             ",
"          . a b c d e f g b h | i = j k ! l , ] ^ 0 m           ",
"        . } , g b e n o p b q r s ; ! $ ! t l u v 0 m w         ",
"      . x , y z & A B C - D E ' f } F G H I J K L M 0 w N       ",
"    . O P Q R S T U V W X Y A Z `  .G ..+.@.#.$.%.&.. m m .     ",
"    . *.k =.u -.;.>.,.'.).L !.R ~.{.{.].^.$./.K B (.9 N w N     ",
"  . _.:.<.[.}.|.1.2.6 2.-.3.4.5.6.7.8.9.0.a.b.@.c.d.0 0 e.w 0   ",
"  . f.g.F h.z i.j.k.l.m.6.n.o.j.j.p.q.H q.r.s.& c.%.0 0 t.w 0   ",
"  . u.e h.z j.v.z w.w.j.x.S 7 y.j.6.z.A.B.l C.~ C.D.N E.0 e.m   ",
". F.,.x.G.G.j.H.w.I.J.j.i.G.7 ..K.L.6.M.N.! O.f P.Q.e.E.0 N t.. ",
". ' _ R.i.6.J.j.w.I.J.v.6.5.S.T.U U.s.V.W.: ) ] X.Y.e.Z.. N e.. ",
". `. +h.G.z h.I.I.5.j.j.I..+U.++X @+#+$+%+p N.&+X.(.Z.E.0 w m . ",
".  +*+x.x.w.z 5.=+U -+;+>+8.=+,+^.'+8 )+T.W.!+~+Q.Q.Y.9 w e.e.. ",
". $ {+]+x.^+H.w./+>+(+>+>+R >+_+6.:+<+#+$+$+[+$+w m }+. 0 t.e.. ",
". '.g. .7 % $ % |+6.=+{.>+>+5.1+2+3+4+#+)+4+<+5+e.. . . . e.m . ",
". 6+7+[+8+9+'., ;+5.0+o.0+(+6.y.V.4+#+$+).a+w t.N . . . . w e.. ",
". b+7+*.c+d+e+6+'+U y.(+(+(+;+[.f+g+h+) 7 i+j+t.. . . . 0 w m . ",
"  . 8+3 > s k+l+++(+0+-+{.(+7.T [.F m+a l h+I &+&.. . . e.w m   ",
"  . :.b n+c+,.i o+*+l.@ F.p+>.S.n A S q+q+q+q+q+q+q+q+q+q+q+q+q+",
"  . / k+r+k+* *+. . . . . . . . . . . . . . . . . . . . . . . q+",
"    . r+s u.r *+. . s+s+. . . s+s+. . . . . t+t+. . . t+t+. . q+",
"    . [.r+ +:.l.. s+. . t+. s+. . t+. . . s+. . t+. t+. . t+. q+",
"      . u+s u.@ . s+. . t+. s+. . t+. t+. s+. . t+. t+. . t+. q+",
"        . l+| p+. . s+s+. . . s+s+. . . . . t+t+. . . t+t+. . q+",
"          . : >.. s+. . t+. s+. . t+. t+. s+. . t+. s+. . t+. q+",
"            . n . s+. . t+. s+. . t+. . . s+. . t+. s+. . t+. q+",
"              A . . s+s+. . . s+s+. . . . . t+t+. . . t+t+. . q+",
"              n.. . . . . . . . . . . . . . . . . . . . . . . q+",
"              B q+q+q+q+q+q+q+q+q+q+q+q+q+q+q+q+q+q+q+q+q+q+q+q+"};
