/* XPM */
static char * kworldwatch_xpm[] = {
"48 48 249 2",
"  	c None",
". 	c #020204",
"+ 	c #D6D6D4",
"@ 	c #B2E2FC",
"# 	c #E6FEFC",
"$ 	c #FEFEFC",
"% 	c #BADEFC",
"& 	c #9ED6FC",
"* 	c #86C6FC",
"= 	c #56A2FC",
"- 	c #4686FC",
"; 	c #000000",
"> 	c #DEDEFC",
", 	c #E6F6FC",
"' 	c #D6EEFC",
") 	c #BEE6FC",
"! 	c #A6C6FC",
"~ 	c #7AA2E4",
"{ 	c #5A82DC",
"] 	c #367ADC",
"^ 	c #7AAEF4",
"/ 	c #3672B4",
"( 	c #164A7C",
"_ 	c #060E14",
": 	c #7EB6EC",
"< 	c #96D2FC",
"[ 	c #064AC4",
"} 	c #4A72C4",
"| 	c #769AE4",
"1 	c #D6D6FC",
"2 	c #4696CC",
"3 	c #6AA2DC",
"4 	c #9EB2F4",
"5 	c #668EDC",
"6 	c #3E7EDC",
"7 	c #326EB4",
"8 	c #0E2E4C",
"9 	c #121214",
"0 	c #061624",
"a 	c #025AFC",
"b 	c #72C2FC",
"c 	c #126EF4",
"d 	c #AEDEF4",
"e 	c #023AC4",
"f 	c #022E7C",
"g 	c #8ECEF4",
"h 	c #6A9AE4",
"i 	c #4A96F4",
"j 	c #92A2EC",
"k 	c #4E7ACC",
"l 	c #6686CC",
"m 	c #62B2FC",
"n 	c #2E96FC",
"o 	c #66AEFC",
"p 	c #0652CC",
"q 	c #1E76EC",
"r 	c #8ACAFC",
"s 	c #BEC6EC",
"t 	c #F6F6F4",
"u 	c #F2F6FC",
"v 	c #5A7ABC",
"w 	c #124674",
"x 	c #1652DC",
"y 	c #86AEE4",
"z 	c #728EAC",
"A 	c #72AED4",
"B 	c #669ED4",
"C 	c #C6EEFC",
"D 	c #B6EAFC",
"E 	c #929ADC",
"F 	c #5692BC",
"G 	c #42668C",
"H 	c #464E74",
"I 	c #0E1A24",
"J 	c #AED6E4",
"K 	c #BEB294",
"L 	c #AA9264",
"M 	c #BAB26C",
"N 	c #5676B4",
"O 	c #265274",
"P 	c #3A7674",
"Q 	c #4A6E94",
"R 	c #3E4A54",
"S 	c #061E3C",
"T 	c #7ED6FC",
"U 	c #C6BABC",
"V 	c #92AA9C",
"W 	c #A69E84",
"X 	c #96926C",
"Y 	c #CECECC",
"Z 	c #225AAC",
"` 	c #024E94",
" .	c #B2BECC",
"..	c #6276D4",
"+.	c #B2B2BC",
"@.	c #768AC4",
"#.	c #929294",
"$.	c #565654",
"%.	c #567274",
"&.	c #627A84",
"*.	c #222224",
"=.	c #6AB6FC",
"-.	c #529EF4",
";.	c #568EB4",
">.	c #FEDE94",
",.	c #AAA27C",
"'.	c #6A6A6C",
").	c #76A6BC",
"!.	c #92A2C4",
"~.	c #021684",
"{.	c #162E84",
"].	c #2E8AB4",
"^.	c #8A8A8C",
"/.	c #666E54",
"(.	c #7A9A7C",
"_.	c #76866C",
":.	c #365644",
"<.	c #0A3224",
"[.	c #1A3224",
"}.	c #DEAE34",
"|.	c #767EB4",
"1.	c #E6BA7C",
"2.	c #A6A6A4",
"3.	c #626264",
"4.	c #AE9664",
"5.	c #AE863C",
"6.	c #8A823C",
"7.	c #9AD28C",
"8.	c #7682B4",
"9.	c #266EA4",
"0.	c #9E9E9C",
"a.	c #767674",
"b.	c #7E7A4C",
"c.	c #6A7E74",
"d.	c #4A5A34",
"e.	c #061E04",
"f.	c #2A3A9C",
"g.	c #267AFC",
"h.	c #224664",
"i.	c #FECA5C",
"j.	c #FEB244",
"k.	c #F6B62C",
"l.	c #BEA654",
"m.	c #3E6254",
"n.	c #828284",
"o.	c #323234",
"p.	c #162214",
"q.	c #CA7E7C",
"r.	c #FECA9C",
"s.	c #1E56E4",
"t.	c #021EA4",
"u.	c #F2AE14",
"v.	c #CA9A24",
"w.	c #7A9ABC",
"x.	c #369AFC",
"y.	c #0A66FC",
"z.	c #FEBE7C",
"A.	c #FED67C",
"B.	c #FEE68C",
"C.	c #DEAAA4",
"D.	c #5E5ACC",
"E.	c #8E8E8C",
"F.	c #FEA654",
"G.	c #FEBE4C",
"H.	c #FEC66C",
"I.	c #E6AA1C",
"J.	c #7A7A74",
"K.	c #2E8EFC",
"L.	c #FECA7C",
"M.	c #FEEEB4",
"N.	c #FEF6CC",
"O.	c #6E769C",
"P.	c #020E34",
"Q.	c #166EBC",
"R.	c #8A7AA4",
"S.	c #2E5294",
"T.	c #C2FEFC",
"U.	c #FED2AC",
"V.	c #EEBA44",
"W.	c #FEBE14",
"X.	c #829EE4",
"Y.	c #3E7EFC",
"Z.	c #C6C6C4",
"`.	c #B6968C",
" +	c #02366C",
".+	c #0A2E1C",
"++	c #1A2E24",
"@+	c #DEC68C",
"#+	c #666E94",
"$+	c #022694",
"%+	c #8AB6EC",
"&+	c #06464C",
"*+	c #3A3A3C",
"=+	c #DEB64C",
"-+	c #B2B6BC",
";+	c #06529C",
">+	c #7EBAFC",
",+	c #424244",
"'+	c #2A2E2C",
")+	c #1A1A1C",
"!+	c #F2C66C",
"~+	c #EEBE54",
"{+	c #4A5274",
"]+	c #1E328C",
"^+	c #023E94",
"/+	c #02265C",
"(+	c #DAFEFC",
"_+	c #E6E6DC",
":+	c #EAC27C",
"<+	c #021E84",
"[+	c #5286BC",
"}+	c #2A62AC",
"|+	c #DAB254",
"1+	c #023684",
"2+	c #265EAC",
"3+	c #E2E2E4",
"4+	c #E6CA8C",
"5+	c #1A6AD4",
"6+	c #4E9ACC",
"7+	c #06223C",
"8+	c #EECA84",
"9+	c #5EAAFC",
"0+	c #D2A63C",
"a+	c #6E7AD4",
"b+	c #9EDEFC",
"c+	c #C2F6FC",
"d+	c #4256B4",
"e+	c #2E5A7C",
"f+	c #063E3C",
"g+	c #365A9C",
"h+	c #5EB6D4",
"i+	c #0E3E74",
"j+	c #D2F6FC",
"k+	c #EEEEEC",
"l+	c #E6E6E4",
"m+	c #DEDEDC",
"n+	c #BEBEBC",
"o+	c #B6B6B4",
"p+	c #AEAEAC",
"q+	c #969694",
"r+	c #868684",
"s+	c #7E7E7C",
"t+	c #8E8E9C",
"u+	c #6ABAFC",
"v+	c #8E968C",
"w+	c #EAEAEC",
"x+	c #027274",
"y+	c #CACACC",
"z+	c #AAAAAC",
"                                                                                                ",
"                                                                                                ",
"                                    . . . . . . . . . . . .                                     ",
"                              . . . + @ # $ $ $ # % & * = - ; . .                               ",
"                          . . > , $ # ' # ) ' $ ! ~ ! { ] ^ ^ / ( ; _                           ",
"                      . . ^ % : < $ < ] [ { $ ! } | 1 2 3 4 5 6 7 ( 8 9 0                       ",
"                    . a % b - c % d e f g ' $ ' { h , i g j | k l / ( 0 9 _                     ",
"                  . m , n o p [ ) | [ q r s $ $ t u 1 ^ 4 | l v 5 k w 8 . _ 0                   ",
"                . a $ b ] i x ^ y z 7 2 A B y C $ # D E l ^ ~ l F l G H I . 0 0                 ",
"              . m $ q [ q & J K L M K 2 : { B d d g E B A & N O P v Q P R . _ 0 S               ",
"            . a T - q 5 U V W z X M Y N Z ` 3  ...2 +.@.z #.$.O P %.&.R R *.. 0 0 0             ",
"          . =.-.e e ;.>.W Z ,.'.` ).!.~.{.N 3 d # j ].^.L X /.%.(._._._.:.<.. 0 0 0 .           ",
"          [.=.a c e }.^.e |.1.2.6 q ` 3.4.M 5.6.7.8.9.0.X a.b.c.&.(.b./.d.e.. _ 0 0 0           ",
"        . c a C p e 7 f.x @.+.| -.g.[ w h.6.i.j.k.k.l.l.5.5.6.X m.m.%.n./.o.p.. 0 0 0 .         ",
"        . q =.@ e 7 q.r.>...x g.q s.e t.~.l.i.i.i.i.k.u.v.5.L 4.b.^.&.w.&.3.e.. _ 0 0 0         ",
"      . x.q T y.v z.A.>.B.r.C.D.U C.|.N E.F.G.H.A.K c.I.u.v.6.J./.#.|.|.&.d.e.. . 0 0 0 0       ",
"      . g.y.K.E r.>.A.L.A.H.r.M.M.N.M.A.n.#.r.A.A.H.H ( H h.O ;.N O.!.).O./.e.. _ P.0 0 .       ",
"      . * q 4 M.r.A.A.A.H.>.A.M.>.A.B.>.n.Q.U H.L.A.z.R.O.S.[ k l 8.y | O.d.e.. p.. 0 0 0       ",
"    . T.~ T N.U.L.U.A.U.>.>.>.H.i.H.B.L.z.} 9.V.W.G.i.z.1.E.` k | j X.N :.e.e.. p._ _ 0 0 .     ",
"    . , Y.: M.>.A.A.i.A.>.>.H.F.i.A.B.L.>.Z.S.,.k.W.W.i.`. +` B j !.N h..+++e.p.*.. . 0 0 .     ",
"    . @ - y U.B.G.A.G.L.A.B.i.i.G.H.A.i.i.@+|.;.1.W.1.#+$+f / %+3 9.w &+:.*+0 ++p.. . 0 0 .     ",
"    . & & 1 r.A.A.A.H.G.i.H.i.H.A.>.H.i.j.=+-+..&.n.S.~.~.;+;.>+/ ` &+&+m.,+++'+)+. 0 0 0 .     ",
"    . T & 1 U.U.>.>.U.H.H.G.L.!+~+G.j.G.k.u.!+#.H O {+]+ +^+3 v `  +/+&+<.++o.++. 0 0 0 0 .     ",
"    . $ (+_+M.M.M.>.>.A.H.~+}.@+=+=+=+}.W.V.V.W 4.=+:+ +$+<+[+}+f  +/+S 0 e.o.'+. 0 0 0 0 .     ",
"    . T.i T Y M.N.M.>.>.>.!+}.|+=+=+k.}.}.=+k.K ~+U.|.1+<+$+^+^+^+2+f S 0 I *._ . . 0 0 0 .     ",
"    . n K.r } w.Y 3+Y J + 4+i.i.V.I.k.k.}.G.V.i.i.C.^+~.~.~.$+<+~.1+f S P.. . . . . _ 0 0 .     ",
"    . y.y.n 5+Z 7 A 6+A 6+A.A.i.!+X |+~+~+:+i.i.4+ +<+~.<+$+$+<+$+/+7+0 _ . . . . . _ 0 0 .     ",
"    . x.a p Z 5+5+p q 6 y V.i.H.1.K 8+~+=+V.>.8+1+~.<+<+/+^+^+;+ +P.P.P._ . . . . . 0 0 0 .     ",
"    . n a p y.q 9+5 p 2 i !+V.@+@+|+~+=+|+G.@+9./+<+$+^+Z / }+]+ +P.P.. . . . . . . 0 0 0 .     ",
"    . x.a a = 4 d  .{ 6 6+K V.4+A.|+|+|+=+0+V f.` a+2+2+5 | k Z S.h./+0 . . . . . _ 0 0 0 .     ",
"      . g.y.9+C # b+b+c+! z |+V.:+!+l.l.V.0+Z.d+;+c+d+f < : N ` e+e+f+<.e.. . . . 0 0 0 0       ",
"      . * 9+9+T.* i i T (+) L V.~+|+|+V.G.L.+ Q Z / g+w h+X.l g+w &+&+<.9 . . . _ 0 0 0 .       ",
"      . e < b+T.^ % ! T # # #+~+~+|+|+V.G.L.Y G Z 7 S.i+h+X.N S.w &+f+.+_ . . . . I 0 0 .       ",
"        . b+%+T.m d j+D # u 3.L $ t k+l+m++ Y Z.n+o+p+2.0.q+E.r+s+s+s+s+s+s+s+s+s+s+s+s+s+s+    ",
"        . T d D % i b+' # # t+J.u . . . . . . . . . . . . . . . . . . . . . . . . . . . . s+    ",
"          . & b+' =.r # (+u+}+v+w+. . . . . . . . . . . . . . . . . . . . . . . . . . . . n.    ",
"          . e : C % 9+u+T.@ Z G m+. . x+x+x+. . . x+x+x+. . . . . T.T.T.. . . T.T.T.. . . s+    ",
"            . b d % =.9+i -.: y + . x+. . . T.. x+. . . T.. . . x+. . . T.. T.. . . T.. . n.    ",
"              . * , # @ N 2 7 3 y+. x+. . . T.. x+. . . T.. T.. x+. . . T.. T.. . . T.. . s+    ",
"                . b ' h [+%+6 } n+. . x+x+x+. . . x+x+x+. . . . . T.T.T.. . . T.T.T.. . . n.    ",
"                  . * c+: d 9+Q.+.. x+. . . T.. x+. . . T.. T.. x+. . . T.. x+. . . T.. . s+    ",
"                    . x.Q.< r 9+z+. x+. . . T.. x+. . . T.. . . x+. . . T.. x+. . . T.. . n.    ",
"                      . . x.Q.Q.0.. . x+x+x+. . . x+x+x+. . . . . T.T.T.. . . T.T.T.. . . s+    ",
"                          . . x.q+. . . . . . . . . . . . . . . . . . . . . . . . . . . . n.    ",
"                              . ^.. . . . . . . . . . . . . . . . . . . . . . . . . . . . s+    ",
"                                s+n.s+s+s+s+s+s+s+s+n.n.n.n.n.n.n.n.n.n.n.n.n.n.s+s+s+s+s+n.    ",
"                                                                                                ",
"                                                                                                "};
