/* XPM */
static char*mini[]={
"16 16 10 1",
"a c #ffa858",
"h c #000080",
"b c #808000",
"c c #c05800",
"g c #c0c0ff",
"# c #000000",
"f c #ff8000",
"e c #0000c0",
"d c #800000",
". c None",
".....######.....",
"...##ababcb##...",
"..#bababababa#..",
".#dadedaaebaba#.",
".#edeeeaaaaaab#.",
"#eaaaefdaaeebac#",
"#faaaaafeaeeebe#",
"#eaaaaaaceeeeee#",
"#eeebabaceeegee#",
"#eeecbabeeegege#",
"#geedabaeeegeee#",
".#eeeaaeeaeeee#.",
".#geefaeeegeee#.",
"..#geeeeeghee#..",
"...##egggeg##...",
".....######....."};
