/* XPM */
static char * kodo_xpm[] = {
"34 34 150 2",
"  	c None",
". 	c #FFFFFF",
"+ 	c #505050",
"@ 	c #D8D8D8",
"# 	c #E3E3E3",
"$ 	c #000000",
"% 	c #060606",
"& 	c #090909",
"* 	c #1E1E1E",
"= 	c #030303",
"- 	c #2E2E2E",
"; 	c #313131",
"> 	c #414241",
", 	c #4C4C4C",
"' 	c #181818",
") 	c #040404",
"! 	c #050505",
"~ 	c #020202",
"{ 	c #010101",
"] 	c #131313",
"^ 	c #0C0C0C",
"/ 	c #595959",
"( 	c #EDEDED",
"_ 	c #FDFDFD",
": 	c #3A3A3A",
"< 	c #E0E0E0",
"[ 	c #191919",
"} 	c #373737",
"| 	c #1C1C1C",
"1 	c #171717",
"2 	c #1F1F1F",
"3 	c #0B0B0B",
"4 	c #303030",
"5 	c #3C3C3C",
"6 	c #DBDBDB",
"7 	c #2F2F2F",
"8 	c #222222",
"9 	c #5F5F5F",
"0 	c #494949",
"a 	c #F7F7F7",
"b 	c #444343",
"c 	c #454444",
"d 	c #464646",
"e 	c #5D5D5D",
"f 	c #111111",
"g 	c #454545",
"h 	c #444444",
"i 	c #424343",
"j 	c #404040",
"k 	c #383838",
"l 	c #414141",
"m 	c #1A1A1A",
"n 	c #474747",
"o 	c #232323",
"p 	c #757575",
"q 	c #252525",
"r 	c #6B6A6A",
"s 	c #8C8C8C",
"t 	c #E2E2E2",
"u 	c #2B2B2B",
"v 	c #737272",
"w 	c #939090",
"x 	c #919292",
"y 	c #8A8989",
"z 	c #979797",
"A 	c #676767",
"B 	c #434343",
"C 	c #656565",
"D 	c #787878",
"E 	c #7D7D7D",
"F 	c #4A4A4A",
"G 	c #4E4E4E",
"H 	c #767575",
"I 	c #F8F8F8",
"J 	c #565656",
"K 	c #242424",
"L 	c #6B6B6B",
"M 	c #686868",
"N 	c #717171",
"O 	c #636363",
"P 	c #6E6E6E",
"Q 	c #545454",
"R 	c #393939",
"S 	c #E5E5E5",
"T 	c #CDCDCD",
"U 	c #424242",
"V 	c #4D4D4D",
"W 	c #4B4B4B",
"X 	c #202020",
"Y 	c #3F3F3F",
"Z 	c #696969",
"` 	c #161616",
" .	c #121212",
"..	c #333333",
"+.	c #3D3D3D",
"@.	c #3C3D3D",
"#.	c #151515",
"$.	c #5E5E5E",
"%.	c #0D0D0D",
"&.	c #0A0A0A",
"*.	c #363636",
"=.	c #282828",
"-.	c #212121",
";.	c #2D2D2D",
">.	c #3B3B3B",
",.	c #575757",
"'.	c #4B4B4A",
").	c #484848",
"!.	c #070707",
"~.	c #5A5A5A",
"{.	c #080808",
"].	c #0F0F0F",
"^.	c #323232",
"/.	c #1B1B1B",
"(.	c #707070",
"_.	c #F9F9F9",
":.	c #616161",
"<.	c #F5F4F4",
"[.	c #0E0E0E",
"}.	c #3E3E3E",
"|.	c #FBFAFA",
"1.	c #515050",
"2.	c #515151",
"3.	c #7D7C7C",
"4.	c #FBFBFB",
"5.	c #918F8F",
"6.	c #A5A5A5",
"7.	c #797878",
"8.	c #A19F9F",
"9.	c #9B9A9A",
"0.	c #959595",
"a.	c #939191",
"b.	c #A2A2A2",
"c.	c #535353",
"d.	c #F6F6F6",
"e.	c #343434",
"f.	c #737373",
"g.	c #FAFAFA",
"h.	c #5C5C5C",
"i.	c #1D1D1D",
"j.	c #525252",
"k.	c #555555",
"l.	c #262626",
"m.	c #353535",
"n.	c #6F6F6F",
"o.	c #101010",
"p.	c #141414",
"q.	c #2C2C2C",
"r.	c #272727",
"s.	c #CACACA",
"                                                                    ",
"                                                                    ",
"                                                                    ",
"                                                                    ",
"                                                                    ",
"                                                                    ",
"  . . . . . . . . . . . . . . . . . . . . . . . . . . . . . . . +   ",
"  . @ @ @ @ @ @ @ @ @ @ @ @ @ @ @ @ @ @ @ @ @ @ @ @ @ @ @ @ @ # $   ",
"  . @ % $ & * = = = - ; > > > , $ ' ) ! ! % % ~ ' { $ ] ! { = # $   ",
"  . @ ^ / ( _ ( : : > ( ( ( < > [ } | 1 1 [ 2 3 4 5 6 _ 6 7 & # $   ",
"  . @ 8 _ 9 0 9 a : b c d e . 9 f g h i j k l m n _ 9 0 9 _ o # $   ",
"  . @ / / p p p a q r s s s t r u v w x s y z 5 A _ p p p a 9 # $   ",
"  . @ B C D _ a E | F G H I A J K e L M N O P - J M _ _ _ I O # $   ",
"  . @ 5 0 Q 0 H a o B R S T k U ' V W h V j G X Y Z Q Z H ( d # $   ",
"  . @ R _ H 0 H a ` : k _ A o 4  .l ..V Z +.R ` g _ E @.H ( #.# $   ",
"  . @ 3 $.( _ _ 7 & ; %._ ..%.] &.*.* =.. u -.^ 7 G _ ( _ ;.^ # $   ",
"  . @ >.U g , l 0 X >.Y Y >.>.>.2 ,.d U '.U ).o >.B ).).d g K # $   ",
"  . @ ~ $ $ $ $ $ { 3 $ $ $ $ $ $ %.$ $ $ $ $ $ ^ $ $ $ $ $ $ # $   ",
"  . @ ^ !.;.~.; !.{.;.& [ ;.^ ].) ^.&.&.&.3 %.% - ; > > > , !.# $   ",
"  . @ /.(.( _.( :.3 k +.~.<.- ^.[.}.u K K q 4 ] > ( ( ( < > 4 # $   ",
"  . @ F _ x F x _ K F F ( |., J m 1.Q + 2.W Q 8 b c d e . 9 2 # #   ",
"  . @ 3.4.3.3.3.4.R 3.s s _ 5.6.^.7.8.9.0.a.b.l r s s s t r 2 : $   ",
"  . @ c._.Q Q O d.e.c.Q f.g.c.h.i.j.k./ C + ~.l.F G H I A J 7 # $   ",
"  . @ ).d.F ).O ( 8 ).Y O g.+.g #.).j Y V *.B /.B R S T k U o # $   ",
"  . @ ` _.x V x _.&.+.;.2.d.7 m.].}.- g Z Y e.] : k _ A o 4 [ # $   ",
"  . @ 3 n._._._.n.& ;.o.* _ f p.% ; o.#._ 1 ] {.; %._ ..%.] &.# $   ",
"  . @ q.5 5 +.>.Y X R R k k R 5 X R R k k R >.K >.k Y >.>.>.r.# $   ",
"  . # # # # # # # # # # # # # # # # # # # # # # # $ # # # # # # $   ",
"  s.$ $ $ $ $ $ $ $ $ $ $ $ $ $ $ $ $ $ $ $ $ $ # $ $ $ $ $ $ $ $   ",
"                                                                    ",
"                                                                    ",
"                                                                    ",
"                                                                    ",
"                                                                    "};
