/* XPM */
static char*kodo[]={
"32 32 7 1",
"c c #808080",
"a c #a0a0a0",
"b c #c3c3c3",
"# c #000000",
"e c #303030",
"d c #585858",
". c #ffffff",
"................................",
"................................",
"................................",
".#############################..",
".#############################..",
".####a.b####....######c.c#####..",
".###d.d.b#####a.#####d.e.a####..",
".###e.e.b#####.a#####d.e.a####..",
".#####..d#####.c#####d.e.a####..",
".#####e.c####e.######e...a####..",
".###e.d.b####c.#######ee.a####..",
".###e.d.b####.a######d.d.a####..",
".###eb.be####.c#######a.b#####..",
".#############################..",
"................................",
"................................",
"................................",
"................................",
".#############################..",
".#############################..",
".####a.a#######.######....####..",
".###d.e.a####...########a.####..",
".###d.e.a####eb.########.a####..",
".###d.e.a#####c.#######e.d####..",
".###d.e.a#####c.#######d.e####..",
".###d.e.a#####c.#######a.#####..",
".###d.e.a#####c.#######.a#####..",
".####a.a######c.######e.d#####..",
".#############################..",
"................................",
"................................",
"................................"};
