/* XPM */
static char * kodo_xpm[] = {
"48 48 233 2",
"  	c None",
". 	c #FFFFFF",
"+ 	c #505050",
"@ 	c #C8C8C8",
"# 	c #D4D4D4",
"$ 	c #D6D6D6",
"% 	c #D3D3D3",
"& 	c #000000",
"* 	c #D2D2D2",
"= 	c #141414",
"- 	c #1A1A1A",
"; 	c #DFDFDF",
"> 	c #282828",
", 	c #101010",
"' 	c #080808",
") 	c #1D1D1D",
"! 	c #4F4F4F",
"~ 	c #4D4D4D",
"{ 	c #1E1E1E",
"] 	c #020202",
"^ 	c #343434",
"/ 	c #0A0A0A",
"( 	c #111111",
"_ 	c #151515",
": 	c #121212",
"< 	c #090909",
"[ 	c #0B0B0B",
"} 	c #0E0E0E",
"| 	c #0C0C0C",
"1 	c #161616",
"2 	c #3F3F3F",
"3 	c #383838",
"4 	c #E1E1E1",
"5 	c #292929",
"6 	c #1B1B1B",
"7 	c #787878",
"8 	c #F7F7F7",
"9 	c #FDFDFD",
"0 	c #F8F8F8",
"a 	c #6A6A6A",
"b 	c #030303",
"c 	c #333533",
"d 	c #656565",
"e 	c #FBFBFB",
"f 	c #FAFAFA",
"g 	c #6C6C6C",
"h 	c #353535",
"i 	c #222222",
"j 	c #1C1C1C",
"k 	c #171717",
"l 	c #181818",
"m 	c #1F1F1F",
"n 	c #191919",
"o 	c #7A7A7A",
"p 	c #F5F5F5",
"q 	c #E0E0E0",
"r 	c #3A3A3A",
"s 	c #323232",
"t 	c #3E3E3E",
"u 	c #F9F9F9",
"v 	c #EBEBEB",
"w 	c #626265",
"x 	c #F3F3F3",
"y 	c #464646",
"z 	c #050505",
"A 	c #434343",
"B 	c #ADADAD",
"C 	c #C1C1C1",
"D 	c #BEBEBE",
"E 	c #C0C0C0",
"F 	c #3B3B3B",
"G 	c #404040",
"H 	c #3C3C3C",
"I 	c #303030",
"J 	c #363636",
"K 	c #393939",
"L 	c #7C7C7C",
"M 	c #E4E4E4",
"N 	c #919191",
"O 	c #E6E6E6",
"P 	c #070707",
"Q 	c #545454",
"R 	c #909090",
"S 	c #484848",
"T 	c #D9D9D9",
"U 	c #424242",
"V 	c #535353",
"W 	c #444444",
"X 	c #8D8D8D",
"Y 	c #494949",
"Z 	c #454545",
"` 	c #4E4E4E",
" .	c #4C4C4C",
"..	c #F6F6F6",
"+.	c #757575",
"@.	c #B8B8B8",
"#.	c #878787",
"$.	c #060606",
"%.	c #525252",
"&.	c #9D9D9D",
"*.	c #8E8E8E",
"=.	c #8F8F8F",
"-.	c #949494",
";.	c #DEDEDE",
">.	c #9B9B9B",
",.	c #0F0F0F",
"'.	c #5E5E5E",
").	c #A09D9D",
"!.	c #989898",
"~.	c #E7E7E7",
"{.	c #9E9E9E",
"].	c #5C5C5C",
"^.	c #A19E9E",
"/.	c #949191",
"(.	c #959393",
"_.	c #595959",
":.	c #C7C7C7",
"<.	c #F2F2F2",
"[.	c #727272",
"}.	c #646464",
"|.	c #CACACA",
"1.	c #ABABAB",
"2.	c #696969",
"3.	c #727070",
"4.	c #6B6B6B",
"5.	c #F1F1F1",
"6.	c #707070",
"7.	c #686868",
"8.	c #717171",
"9.	c #737373",
"0.	c #B6B6B6",
"a.	c #929292",
"b.	c #ACACAC",
"c.	c #515151",
"d.	c #5A5A5A",
"e.	c #DCDCDC",
"f.	c #7F7F7F",
"g.	c #474747",
"h.	c #555555",
"i.	c #A3A3A3",
"j.	c #575757",
"k.	c #5F5F5F",
"l.	c #606060",
"m.	c #CBCBCB",
"n.	c #EDEDED",
"o.	c #888888",
"p.	c #6D6D6D",
"q.	c #B2B2B2",
"r.	c #F4F4F4",
"s.	c #040404",
"t.	c #F0F0F0",
"u.	c #414141",
"v.	c #777777",
"w.	c #7E7E7E",
"x.	c #A2A2A2",
"y.	c #2E2E2E",
"z.	c #7B7B7B",
"A.	c #E9E9E9",
"B.	c #898989",
"C.	c #5B5B5B",
"D.	c #585858",
"E.	c #2F2F2F",
"F.	c #333333",
"G.	c #4B4B4B",
"H.	c #B3B3B3",
"I.	c #A9A9A9",
"J.	c #272727",
"K.	c #322F2F",
"L.	c #616161",
"M.	c #E5E5E5",
"N.	c #202020",
"O.	c #373737",
"P.	c #2A2A2A",
"Q.	c #DADADA",
"R.	c #2C2C2C",
"S.	c #FCFCFC",
"T.	c #C9C9C9",
"U.	c #262626",
"V.	c #131313",
"W.	c #2B2B2B",
"X.	c #010101",
"Y.	c #4A4A4A",
"Z.	c #484846",
"`.	c #D5D5D5",
" +	c #BABABA",
".+	c #636363",
"++	c #999999",
"@+	c #676767",
"#+	c #959595",
"$+	c #2D2D2D",
"%+	c #E2E2E2",
"&+	c #EFEFEF",
"*+	c #232323",
"=+	c #252525",
"-+	c #373937",
";+	c #BBBBBB",
">+	c #D9D6D6",
",+	c #626262",
"'+	c #696767",
")+	c #9C9C9C",
"!+	c #6B6868",
"~+	c #5D5D5D",
"{+	c #6A6767",
"]+	c #797979",
"^+	c #969696",
"/+	c #979797",
"(+	c #AAAAAA",
"_+	c #9F9F9F",
":+	c #989595",
"<+	c #9A9A9A",
"[+	c #8E8B8B",
"}+	c #928F8F",
"|+	c #9F9C9C",
"1+	c #EAEAEA",
"2+	c #939393",
"3+	c #3D3D3D",
"4+	c #7D7D7D",
"5+	c #D0D0D0",
"6+	c #666666",
"7+	c #6F6F6F",
"8+	c #838383",
"9+	c #D7D7D7",
"0+	c #AFAFAF",
"a+	c #D8D8D8",
"b+	c #CECECE",
"c+	c #A1A1A1",
"d+	c #040704",
"e+	c #313131",
"f+	c #050205",
"g+	c #C2C2C2",
"h+	c #212121",
"i+	c #0D0D0D",
"j+	c #090906",
"                                                                                                ",
"                                                                                                ",
"                                                                                                ",
"                                                                                                ",
"                                                                                                ",
"                                                                                                ",
"                                                                                                ",
"                                                                                                ",
"                                                                                                ",
"    . . . . . . . . . . . . . . . . . . . . . . . . . . . . . . . . . . . . . . . . . . . +     ",
"    . @ # $ $ $ $ $ $ $ $ $ $ $ $ $ $ $ $ $ $ $ $ $ $ $ $ $ $ $ $ $ $ $ $ $ $ $ $ $ $ # % &     ",
"    . * = & & & & & & & & & - & & & & & & & & & - & & & & & & & & & - & & & & & & & & & ; &     ",
"    . * > , ' ) ! ~ { ' , ] ^ / ( _ _ _ _ : < & ^ [ } [ | < } [ } & ^ : ' 1 2 3 / | , ] 4 &     ",
"    . * 5 6 7 8 9 9 0 a 6 b c d e 0 0 0 0 f g ] h i j k l l - { m b 3 n o p e f q r { b 4 &     ",
"    . * s t u v ! w x f y z t A B C D E x u + z r F G H H H I J J z K L 0 M a N 0 O K P 4 &     ",
"    . * K Q q R S t T 0 d ' U V W 2 H E 8 X Y ' Z ` ~ ~ Y Y Y  .+ ' F $ ..+. .W @.p d $.4 &     ",
"    . * %.&.*.=.-.-.8 ;.>.,.'.).!.-.C p ~.R {.,.].^./.-.-.-.(.!.{.,._.v p {.!.!.:.<.>.,.4 &     ",
"    . * 2 [.a }.|.0 <.1.2.[ ~ 3.4.[.x 5.4.4.6.[ ` 6.4.7.8.9.d a 6.[  .0.p 4 a.b.p <.a P 4 &     ",
"    . * F c.Q ! ! d.e.8 f.' g.h. .i.p 1.` c.j.' g.h.c.d.k.l.` c.Q ' S Q m.0 0 f n.<.c.z 4 &     ",
"    . * s o.e p.t 3 q.r.R s.2 y t t.0 Q u.u.W P 2 y U r g.S 3 u.W P U W v.! w.c.x...c.P 4 &     ",
"    . * y.z...A.z.B.p u C.z r J D.0 ..E.^ F.K z r h s G.H.I.J.^ J ] r B.e D K.L.r.M.J z 4 &     ",
"    . * y.N.H.u f f <.L i b O.P.D.f Q.) > > 5 b O.5 > R.S.T.6 > 5 b K 5 * f 0 f x _.U.b 4 &     ",
"    . * > N.V.W.%.W j k ) X.^ N.V.g s n j j ) X.^ ) n = y F.n n - X.J ) V.W *.+.N.l N.b 4 &     ",
"    . * S S S Y Y.Y.Y S  ._ Q Y y g.Y Y g.g.Y._ c.Y g.g.S Z.g.g.Y._ Q Y.G.Y S Y S S  ._ 4 &     ",
"    . `.& & & & & & & & & & & & & & & & & & & & & & & & & & & & & & & & & & & & & & & & 4 &     ",
"    . * > b s.X.& & b s.s.& ^ z z s.& X.z z z & ^ z z z ] ] z z z & ^ s.X.& & & & & s.& 4 &     ",
"    . * P.- { !.|. +.+, n s.^ k 1 [ ++@+: 1 k ] ^ = 1 ( _ : = V.k ] ^ i =.#+#+#+#+N P.] 4 &     ",
"    . * $+y.; 8 %+&+0 ++U.] K R.t x...* ) W.$+] K $+5 i *+*+=+W.$+] -++.e 0 0 8 <...z.X.4 &     ",
"    . * I B p ;+R.U A.0 .+P 2 O.e.p <.>+s 2 2 P 2 A S Y y y r 2 2 P 2 H S j.j.j.p `.r P 4 &     ",
"    . * K t.8 6.,+,+!.r.;+z  .'+7 )+p ; _..+7.|  .!+k.~+,+.+.+.+7.| G.{+.+.+]+r.r.a @+| e.4     ",
"    . * + 0 &+R ^+/+(+p q / ]._+:+<+8 M.[+^+&.,.]._+:+{.-.^+}+^+&.,.'.|+^+a.1+..B 2+&.,.& &     ",
"    . * 3+0 &+j.k.k.4+..5+X.S L.~+6+0 ;.h.].l.< S L.].7.p.7+_.].l.< S .+].8+..9+Q ]..+< e.&     ",
"    . * y.1+0 h.G.Y.o.r.0+] A  .G.h.0 a+F Y.` $.A  .Y.y Q h.u.Y.` $.A  .2 b+..]+Y Y.` $.$ &     ",
"    . * P.0.r.c+W.$+9+8 8.z 3+H 3 y 0 $ y.O.r s.3+H 3 y V C.s O.r s.3+G  .u 0 t O.O.3+d+$ &     ",
"    . * E.s t.0 T.;.8 T.> $.K s E.3 0 % N.e+s ] K s E.K S.$ N.e+s ] K I ,+0 <.U.e+I s f+$ &     ",
"    . * 5 i t 0.u n.&.m =+b J i { l g+=.1 { m b J i { l g+=.1 { m b J =+P.M R k h+h+i b $ &     ",
"    . * J., ,.$.i+/ < , , ] F.( , ( ' j+( , ( & F.( , ( ' j+( , ( & F., ,.' P , , , ( & $ &     ",
"    . * h Y y y S S y y Y _ 3 y W W W W W W g._ 3 y W W W W W W g._ F y A y y y W W g._ # &     ",
"    . % ; 4 4 4 4 4 4 4 4 4 4 4 4 4 4 4 4 4 4 4 4 4 4 4 4 4 4 4 4 4 4 e.& e.$ $ $ $ $ # @ &     ",
"    |.& & & & & & & & & & & & & & & & & & & & & & & & & & & & & & & & 4 & & & & & & & & & &     ",
"                                                                                                ",
"                                                                                                ",
"                                                                                                ",
"                                                                                                ",
"                                                                                                ",
"                                                                                                ",
"                                                                                                ",
"                                                                                                "};
