/* XPM */
static char*mini[]={
"16 16 6 1",
"d c #808080",
"b c #a0a0a0",
"# c #000000",
"a c #303030",
"c c #585858",
". c #ffffff",
"................",
"................",
"................",
"################",
"################",
"###ab.b####....#",
"###c.c.b#####b.#",
"###aba.b#####.b#",
"#####b.a#####.c#",
"#####d.d####a.a#",
"###c.c.b####b.##",
"###c.c.b####.b##",
"####b.ba###a.c##",
"################",
"................",
"................"};
