/* XPM */
static char * kodo_mini_xpm[] = {
"16 16 11 1",
" 	c None",
".	c #020204",
"+	c #8E8E8C",
"@	c #565654",
"#	c #3A3A3C",
"$	c #E2E2E4",
"%	c #1E1E1C",
"&	c #C6C6C4",
"*	c #AAAAAC",
"=	c #727274",
"-	c #FEFEFC",
"----------------",
"----------------",
"----------------",
"................",
"................",
"...%&-$%...----.",
"...@-@-*.....*-.",
"...#*#-*.....$*.",
".....*-@....%-=.",
".....=-+....=-#.",
"...@-@-*....*-..",
"...@-@-*....-*..",
"....&-$#...#-=..",
"................",
"----------------",
"----------------"};
