/* XPM */
static char*kmoon[]={
"32 32 6 1",
"c c #c0c000",
"d c #808000",
"# c #000000",
"b c #ffffc0",
". c None",
"a c #585858",
"................................",
"................................",
".............#######............",
"..........###aaaabbb###.........",
".........#aaaaaaacbcbcb#........",
".......##aaaaaaaabcbcbcb##......",
"......#aaaaaaaaaacbcbcbbbc#.....",
".....#aaaaaaaaaaacbbbbcbbbc#....",
".....#aaaaaaaaaaacbcccbbbbb#....",
"....#aaaaaaaaaaaadcccccbbbbb#...",
"...#aaaaaaaaaaaaadcccccbbbccc#..",
"...#aaaaaaaaaaaaadbcccccbbccb#..",
"...#aaaaaaaaaaaaadbccccbbbbcb#..",
"..#aaaaaaaaaaaaaadbbbccccbbcbc#.",
"..#aaaaaaaaaaaaaadbbbcccccbbbb#.",
"..#aaaaaaaaaaaaaadcbcccccccbbb#.",
"..#aaaaaaaaaaaaaadbbccccccbcbb#.",
"..#aaaaaaaaaaaaaadcbbcccbbbcbb#.",
"..#aaaaaaaaaaaaaadbbbcccbbccbb#.",
"..#aaaaaaaaaaaaaadbbbbcbbbccbc#.",
"...#aaaaaaaaaaaaadcbbbbccbbbb#..",
"...#aaaaaaaaaaaaadbbbbbccbbbb#..",
"...#aaaaaaaaaaaaadcbbbbbbbbbc#..",
"....#aaaaaaaaaaaadbcbbbbbbbb#...",
".....#aaaaaaaaaaaccbbbbbbbb#....",
".....#aaaaaaaaaaacbcbbbbbbc#....",
"......#aaaaaaaaaaccbcbbbbc#.....",
".......##aaaaaaaabbcbbbc##......",
".........#aaaaaaacbcbbc#........",
"..........###aaaabcb###.........",
".............#######............",
"................................"};
