/* XPM */
static char * kmoon_xpm[] = {
"34 34 224 2",
"  	c None",
". 	c #020204",
"+ 	c #0E0A04",
"@ 	c #3E3A24",
"# 	c #46422C",
"$ 	c #362E16",
"% 	c #C2BE84",
"& 	c #B2AA7C",
"* 	c #2A220C",
"= 	c #524A34",
"- 	c #423E28",
"; 	c #3E321C",
"> 	c #2A260C",
", 	c #1A160C",
"' 	c #AAA264",
") 	c #B2AA64",
"! 	c #B2AE6C",
"~ 	c #BAB26F",
"{ 	c #CAC68C",
"] 	c #9E9A7C",
"^ 	c #36321C",
"/ 	c #3E3A2C",
"( 	c #3A3620",
"_ 	c #322A1C",
": 	c #B2AA6C",
"< 	c #A69E61",
"[ 	c #AEA674",
"} 	c #A29A54",
"| 	c #CACA9C",
"1 	c #9A9A7C",
"2 	c #463E29",
"3 	c #3A2E17",
"4 	c #423A25",
"5 	c #524631",
"6 	c #4E4633",
"7 	c #322614",
"8 	c #322E14",
"9 	c #2E2A14",
"0 	c #CECA92",
"a 	c #DAD6A7",
"b 	c #C2C28C",
"c 	c #BEBA6C",
"d 	c #B6AE6F",
"e 	c #CECA9C",
"f 	c #DADA9C",
"g 	c #EEEAC4",
"h 	c #2A2204",
"i 	c #2A1E0C",
"j 	c #322A13",
"k 	c #A29A70",
"l 	c #F2F2CF",
"m 	c #C2BA80",
"n 	c #CEC68A",
"o 	c #DADAAC",
"p 	c #E6E2B9",
"q 	c #3A321D",
"r 	c #261E07",
"s 	c #2E2A0C",
"t 	c #928A64",
"u 	c #EEE6BC",
"v 	c #D6CEA4",
"w 	c #DAD29C",
"x 	c #CAC28C",
"y 	c #A69A64",
"z 	c #BAAE7C",
"A 	c #E2DEBC",
"B 	c #EEEEC2",
"C 	c #423621",
"D 	c #362A14",
"E 	c #2E260C",
"F 	c #3E361D",
"G 	c #A29E7C",
"H 	c #D2CE94",
"I 	c #967E44",
"J 	c #AA9A5C",
"K 	c #AE9A5C",
"L 	c #B2A268",
"M 	c #DAD6B4",
"N 	c #EEEECC",
"O 	c #EAEABC",
"P 	c #FAFAD4",
"Q 	c #DACE9E",
"R 	c #C2B67C",
"S 	c #8E7E3C",
"T 	c #9A8644",
"U 	c #A29654",
"V 	c #9A8A4C",
"W 	c #EEEABA",
"X 	c #2E220C",
"Y 	c #9A8E64",
"Z 	c #D2D29C",
"` 	c #AA9E5C",
" .	c #A28E54",
"..	c #9E8A44",
"+.	c #8A7634",
"@.	c #AEA264",
"#.	c #C6C68C",
"$.	c #968E54",
"%.	c #524A3C",
"&.	c #9A9264",
"*.	c #E2DAB4",
"=.	c #A2925C",
"-.	c #928244",
";.	c #A28E48",
">.	c #9E8A4C",
",.	c #A28A54",
"'.	c #CEC694",
").	c #E2E2B4",
"!.	c #BEB68C",
"~.	c #726A52",
"{.	c #32260C",
"].	c #221604",
"^.	c #86826C",
"/.	c #EAEAC4",
"(.	c #9A823C",
"_.	c #9E8E4C",
":.	c #9A8A44",
"<.	c #8A7E34",
"[.	c #F6F6D0",
"}.	c #9A9254",
"|.	c #4A422C",
"1.	c #767254",
"2.	c #B2A66C",
"3.	c #AA965C",
"4.	c #92823C",
"5.	c #86762C",
"6.	c #EEF2D4",
"7.	c #463A24",
"8.	c #4A3E29",
"9.	c #564E24",
"0.	c #CAB67C",
"a.	c #86722C",
"b.	c #927E40",
"c.	c #A6965C",
"d.	c #D2CA94",
"e.	c #F2EEC1",
"f.	c #E6E6B7",
"g.	c #56523C",
"h.	c #4E4234",
"i.	c #2E2614",
"j.	c #5A5634",
"k.	c #867234",
"l.	c #C6BE87",
"m.	c #8E7A3C",
"n.	c #8A7A34",
"o.	c #968244",
"p.	c #DEDEAC",
"q.	c #5A5244",
"r.	c #564E3D",
"s.	c #7E7A5C",
"t.	c #D2CA9C",
"u.	c #CEC290",
"v.	c #968644",
"w.	c #D2CEA4",
"x.	c #42321C",
"y.	c #EEEAD4",
"z.	c #DED2A4",
"A.	c #BAB684",
"B.	c #F2EABC",
"C.	c #D6CA9E",
"D.	c #AE9E5F",
"E.	c #5E5634",
"F.	c #B6AE84",
"G.	c #E2DAAC",
"H.	c #E2DEB4",
"I.	c #DEDAB4",
"J.	c #CABE8A",
"K.	c #A69A5C",
"L.	c #DEDEB8",
"M.	c #4A4234",
"N.	c #726E50",
"O.	c #D6D2A4",
"P.	c #D2CE9C",
"Q.	c #EEEACC",
"R.	c #BAB27C",
"S.	c #C6C6AC",
"T.	c #6E6644",
"U.	c #C6BA86",
"V.	c #E6DEBC",
"W.	c #D6CE9A",
"X.	c #625E4C",
"Y.	c #5A5647",
"Z.	c #CEC69C",
"`.	c #EAE6BA",
" +	c #F2EED4",
".+	c #F6FADC",
"++	c #EAE2BC",
"@+	c #5A523C",
"#+	c #5A4E3F",
"$+	c #D6CA94",
"%+	c #AAA26C",
"&+	c #DEDAAC",
"*+	c #524E3C",
"=+	c #4A4630",
"-+	c #CAC694",
";+	c #BEB27C",
">+	c #EAE6C4",
",+	c #F2F6C8",
"'+	c #DAD6C4",
")+	c #423E34",
"!+	c #625A4C",
"~+	c #564A3C",
"{+	c #1E1604",
"]+	c #FEFEF1",
"^+	c #8A825C",
"/+	c #E6DEB0",
"(+	c #DED6A8",
"_+	c #C6B684",
":+	c #5E5244",
"<+	c #A6A284",
"[+	c #DAD2A4",
"}+	c #FAFAE4",
"|+	c #52463C",
"1+	c #A69E7C",
"2+	c #DAD2AC",
"3+	c #EADEB4",
"4+	c #5E5649",
"5+	c #564A34",
"6+	c #4E422C",
"7+	c #BEB694",
"8+	c #D6D2AC",
"9+	c #564E34",
"0+	c #EAE2B4",
"a+	c #B6B26C",
"                                                                    ",
"                            . . . . . .                             ",
"                      . + + @ # $ % & & . . .                       ",
"                  . . * = - ; > , ' ) ! ~ { ] . .                   ",
"                . ^ / @ @ - ( @ _ : < ' [ } ! | 1 .                 ",
"              . 2 3 4 5 6 2 7 8 9 0 a ' b c d e f g .               ",
"            . ; ; ; 6 ( 3 h i j * k l m n ~ ~ % b o p .             ",
"          . q 8 $ 2 4 j r * h j s t u v w x y z y A f B .           ",
"        . C ; D q ( j E h r > $ F G H p I J K m L M N O P +         ",
"      . ; ; ^ ( ^ $ j j * * E 8 E k Q R S T U V H l W B B 1 .       ",
"      . 2 3 D 3 4 ^ q j j X D ( @ Y Z `  ...J +.@.N O #.0 $..       ",
"    . ; 4 $ 8 6 4 q E * D j E ( %.&.*.=.-.T ;.>.,.'.).B !.@.~..     ",
"    . 5 4 {.( 2 ( q 3 4 $ j D D ].^./.>.(._.T :._.d <.[.B }.{ .     ",
"    . |.q 8 3 ( F F {.q C $ F / # 1.2.3.2.2.>.4.I T 5.b 6.! Z .     ",
"  . 6 |.q E X ; q 7.; 8.4 8.2 2 ^ 9.J 4.` 0.+.a. .S b.c.d.e.f.] .   ",
"  . g.5 $ j D j @ 6 7 # h.%.2 |.i.j.@.k.=.l.m.m.n.o.>.@.~ ! p.H .   ",
"  . q.j.q F $ $ |.r.; C 2 - $ F * s.t.0 u.n >.-.o...v._.2.V ' w..   ",
"  . r.q.@ D q $ q # x.F 8.8.7 3 {.9.R Q y.z.!.>.v.A.B.C.D.=.& a .   ",
"  . g.q.@ {.D {.{.F q F C |.F $ @ E.F.G.H.Q I.e.` x ).J.K.U w.L..   ",
"  . 6 r.6 > q j D j ; F D q 4 M.r.N.b z.O.P.Q.*.D.l.B g R.' a S..   ",
"    . %.r.$ j j 7 D @ # E @ |.X 7.T.n U.V.Q /.g g '.: B W.0 W..     ",
"    . X.Y.7.^ j s 7 3 4 r {.4 $ 4 ~.!.m | Z.`. +.+R ` ++Z.b B .     ",
"    . ; @+#+h.# = F 7 E 3 F 3 D * T.R $+O.v { ).[.J.%+x v &+] .     ",
"      . 6 *+h.=+%.6 F D =+$ 3 i E Y W.-+;+'.'.O.l I.>+u ,+'+.       ",
"      . )+!+~+= 7.i D 7.2 - $ {+* t Q !.0 A J.).B e.).B ]+] .       ",
"        . !+Y.Y.2 q 7 q $ F r {+{+^+/+a (+_+p.g *.).[.[.]+.         ",
"          . :+q.q.2 C M.F h.C $ ( <+p H.[+C.I.W.z.f.B }+.           ",
"            . @+q.|+6 # q # @+6 |.1+&+++[+2+++3+O .+}+.             ",
"              . 4+5+5+= 6+5 r.#+8.7+H.++v '.v `.[.]+.               ",
"                . / 6 g.r.r.#+|+( U.f.O.C.[+u 8+] .                 ",
"                  . . F g.9+= r.q u.'.W.0+e.. . .                   ",
"                      . . . 6 6 q ~ a+R.. . .                       ",
"                            . . . . . .                             ",
"                  . . q = 5+6 %.3 J.l.d.p.u . . .                   "};
