/* XPM */
static char*kmoon[]={
"32 32 8 1",
"b c #808080",
"a c #a0a0a0",
"e c #c3c3c3",
"c c #303030",
". c None",
"# c #585858",
"d c #dcdcdc",
"f c #ffffff",
"................................",
"................................",
"................................",
"................................",
"............#ab####ccc..........",
"...........deab#######c.........",
".........ffeab########ccc.......",
"........fffeab##########c.......",
".......#ffdab###########ccc.....",
"......dfffdab#############c.....",
"......dfffeab#############cc....",
".....#fffdeab##############cc...",
".....dfffdeab###############c...",
"....#dfffdeab##############cc...",
"....edfffdeab###############c...",
"....edfffdeab##############cc...",
"....edfffdeab###############c...",
"....edfffdeab##############cc...",
"....edfffdeab###############c...",
"....#dfffdeab##############cc...",
".....dfffdeab##############cc...",
".....#dffdeab#############cc....",
"......dffdeab#############c.....",
"......#fffdab############cc.....",
"........fffab############c......",
".........ffdab#########cc.......",
".........#ffab#######ccc........",
"...........fdab####ccc..........",
"............dab###cc............",
"................................",
"................................",
"................................"};
