/* XPM */
static char * kmoon_xpm[] = {
"48 48 235 2",
"  	c None",
". 	c #010100",
"+ 	c #1D1600",
"@ 	c #453C28",
"# 	c #454331",
"$ 	c #453F29",
"% 	c #3A3421",
"& 	c #B5B276",
"* 	c #AAA676",
"= 	c #C0BA86",
"- 	c #211A00",
"; 	c #413C29",
"> 	c #3D3821",
", 	c #322913",
"' 	c #35311A",
") 	c #322D1A",
"! 	c #9E9666",
"~ 	c #A69E56",
"{ 	c #C8C28E",
"] 	c #493F2C",
"^ 	c #413821",
"/ 	c #352D18",
"( 	c #29220B",
"_ 	c #29260B",
": 	c #1E1700",
"< 	c #221704",
"[ 	c #8A7E3E",
"} 	c #9A924E",
"| 	c #AAA25E",
"1 	c #968E46",
"2 	c #CBCA97",
"3 	c #494330",
"4 	c #3D3420",
"5 	c #352913",
"6 	c #ADA676",
"7 	c #928643",
"8 	c #A69E76",
"9 	c #9E9656",
"0 	c #AAA276",
"a 	c #C4BE86",
"b 	c #D6D6A3",
"c 	c #3A341A",
"d 	c #2E260E",
"e 	c #322612",
"f 	c #4D4331",
"g 	c #291E0A",
"h 	c #E5E2AF",
"i 	c #ADA666",
"j 	c #9E9252",
"k 	c #B5AE71",
"l 	c #A29A56",
"m 	c #D3D29F",
"n 	c #F3FAC8",
"o 	c #3A2D1A",
"p 	c #504A38",
"q 	c #261E04",
"r 	c #2E220B",
"s 	c #AA9E73",
"t 	c #CFC693",
"u 	c #B9AE74",
"v 	c #C8BE88",
"w 	c #BDB67C",
"x 	c #DEDEAB",
"y 	c #453829",
"z 	c #221B04",
"A 	c #1A1400",
"B 	c #261E0B",
"C 	c #66562E",
"D 	c #E8E2B7",
"E 	c #E1E2AF",
"F 	c #C0B279",
"G 	c #D6CA97",
"H 	c #B1AA66",
"I 	c #AA9E60",
"J 	c #DADAA7",
"K 	c #CFCE9F",
"L 	c #322D13",
"M 	c #766A46",
"N 	c #D3CA98",
"O 	c #E8DEB3",
"P 	c #D3CE9B",
"Q 	c #DED6A7",
"R 	c #968A56",
"S 	c #ADA26E",
"T 	c #B1AA76",
"U 	c #968A4E",
"V 	c #F3F6D1",
"W 	c #E8EAB7",
"X 	c #3A311A",
"Y 	c #261B04",
"Z 	c #8A8262",
"` 	c #CBC28E",
" .	c #DACE9F",
"..	c #ECE6B8",
"+.	c #AA965E",
"@.	c #968646",
"#.	c #B1A668",
"$.	c #B9AA76",
"%.	c #B5AA6D",
"&.	c #928242",
"*.	c #E1E2B7",
"=.	c #7E7656",
"-.	c #867636",
";.	c #A28E56",
">.	c #9E8A46",
",.	c #9E8A4E",
"'.	c #8E7E3D",
").	c #C4B67E",
"!.	c #E8E6B7",
"~.	c #E5DEAE",
"{.	c #020200",
"].	c #7A724E",
"^.	c #BDAE76",
"/.	c #82722E",
"(.	c #968A46",
"_.	c #8A7A3B",
":.	c #ECEEBD",
"<.	c #E1DEB7",
"[.	c #E5E6B4",
"}.	c #F0F2D1",
"|.	c #FAF6D1",
"1.	c #CBC690",
"2.	c #9E8E4E",
"3.	c #8E7A3D",
"4.	c #9A8648",
"5.	c #A29255",
"6.	c #927E3C",
"7.	c #826E2E",
"8.	c #FEFEE8",
"9.	c #3D311E",
"0.	c #766E48",
"a.	c #968246",
"b.	c #CFCA96",
"c.	c #E5E2B7",
"d.	c #544E3F",
"e.	c #CBCA8E",
"f.	c #FAFAD1",
"g.	c #867646",
"h.	c #9A8A49",
"i.	c #8E763E",
"j.	c #D6CE9D",
"k.	c #5D5740",
"l.	c #D3D297",
"m.	c #968236",
"n.	c #C0B67D",
"o.	c #A69658",
"p.	c #867A36",
"q.	c #FAFEDA",
"r.	c #635D46",
"s.	c #A29656",
"t.	c #A69A5B",
"u.	c #867236",
"v.	c #827236",
"w.	c #DEDAA9",
"x.	c #605A40",
"y.	c #8A7E4E",
"z.	c #9A8E4C",
"A.	c #8A7636",
"B.	c #8A763E",
"C.	c #8E824E",
"D.	c #413C21",
"E.	c #453D1E",
"F.	c #96823E",
"G.	c #C8B682",
"H.	c #7E6A29",
"I.	c #8E7E46",
"J.	c #F0EEC3",
"K.	c #504638",
"L.	c #4D4633",
"M.	c #322E1B",
"N.	c #8E823E",
"O.	c #927E46",
"P.	c #6A5615",
"Q.	c #7A6225",
"R.	c #F0F2C8",
"S.	c #544A3D",
"T.	c #575135",
"U.	c #AD9E60",
"V.	c #AA9A5E",
"W.	c #CFC28E",
"X.	c #B5AA76",
"Y.	c #504E3C",
"Z.	c #504A3F",
"`.	c #423D1B",
" +	c #C4BA85",
".+	c #E5D6A7",
"++	c #4C4022",
"@+	c #CBC297",
"#+	c #E1DEAF",
"$+	c #DAD29F",
"%+	c #ECEABF",
"&+	c #D6CA9F",
"*+	c #F0EAC0",
"=+	c #FEFEF8",
"-+	c #CBBE89",
";+	c #AA9A56",
">+	c #5A543A",
",+	c #F7FAD1",
"'+	c #DAD6A3",
")+	c #E1D6AF",
"!+	c #B9B273",
"~+	c #BDB276",
"{+	c #DAD6AF",
"]+	c #574E34",
"^+	c #D6D29D",
"/+	c #A29666",
"(+	c #FEFAE3",
"_+	c #F7FADA",
":+	c #A69256",
"<+	c #4C4328",
"[+	c #9A8E66",
"}+	c #E1E2A7",
"|+	c #C8BA86",
"1+	c #6A623E",
"2+	c #C8C286",
"3+	c #F3F2D1",
"4+	c #C4B68E",
"5+	c #F3F2C7",
"6+	c #E1DAAB",
"7+	c #F0EAC8",
"8+	c #726A46",
"9+	c #C0B686",
"0+	c #E1DAB7",
"a+	c #F3EEC8",
"b+	c #F7F2D1",
"c+	c #867E5E",
"d+	c #D3C697",
"e+	c #F3F6C4",
"f+	c #DAD2A7",
"g+	c #494631",
"h+	c #AAA27E",
"i+	c #DED2A3",
"j+	c #C4B686",
"k+	c #D6D2A7",
"l+	c #BDB27E",
"                                                                                                ",
"                                                                                                ",
"                                        . . . . + + + +                                         ",
"                                  . . . @ # $ % & * * = + + -                                   ",
"                              . . $ ; > @ , ' ) ! * ~ * & & { + +                               ",
"                          . . ] $ @ ^ / ( _ : < [ } | } } 1 1 } 2 + -                           ",
"                      . . 3 ; 4 5 / @ 4 % > ; ^ 6 7 8 9 0 8 } ! a b b + +                       ",
"                    . c 4 d e @ ] f ; @ e ' g $ 8 h i j = * k l { 2 m n = -                     ",
"                  . / c 4 o ^ p ; 4 ^ q r , e / s h t u k v i | w k & m 2 x +                   ",
"                . , 5 o 5 c y $ q 5 z A B ( , , C D E F G F H I { k a J K b n -                 ",
"              . > , d L r $ 4 ^ q : r q q , _ ' M N O { P Q w R S T U V 2 m x W +               ",
"            . X r / / , X 4 ^ z r Y < < B , / @ Z `  ...+.@.#.$.@.%.&.* *.x x W 2 -             ",
"            . , ' 4 e 5 / L , ( , _ g q ( , d > =.b k E -.;.>.,.'.O ).!.~.V *.*.x {.            ",
"          . d 4 d ' ' / L 5 g / ( B B Y r , d L ].O ^.w /.(._.j '.'.a :.<.[.}.*.b b -           ",
"          . 3 / e / , 4 ' / , , e ( d B d , , ; =.|.1.2.+.3.4.5.6.7.l 8.:.!.2 a J } {.          ",
"        . X 4 5 / , % X ^ , 9.e g / r g , 4 3 f 0.&.a S '.@.3.5.'.a.,.b.{ c.{ b l * 1 -         ",
"        . $ X / , , p c @ L ( _ ( e d d ( , ' d.Z e.f.&.g.'.a.h.-.4.i.j.I <.:.V * l 1 {.        ",
"      . f X ; d , 9.; 4 / / 5 o > , L e , , e q k.}.l.6.6._.&.h.6.&.m.n.o.p.x q.m ! } = -       ",
"      . 3 / ' d / / X , ^ / ( / d X _ , 5 X / / r.0 n.o.&.s.t.u.v.@.3.'.5./.w.J V 1 1 2 {.      ",
"      . 3 o 5 d L , / / ^ X d X > y , X > 4 ^ p x.y.z.a.N A.T #.-.3.B.C.-.7.U & n b & [.-       ",
"    . p p , ' r ( ( X , 4 4 X 9.@ 9.] ^ D.@ X L E.g.t.-.i F.G.-.H.7.5.u._.'.I.n.1.J.x K 8 +     ",
"    . K.L.^ / _ e e / , > @ q 4 3 @ 3 $ 4 $ 4 ( M.N.O.P.u.I %.&.Q.A./._.I.-.s.i T = R.[.m +     ",
"    . d.d.@ d X , e Y o ] f , 4 > y S.3 ^ ] / , T.0 n.U.V.^.W.U 3.@.v.6.I.+.h.X.S p.~ & w {.    ",
"    . S.Y.p , 9./ 5 ) > 3 p 4 X 4 ^ 4 X d % q r r.s b.2 W.P n.o.B._.'.a.z.N.'.%.5.5.C.& x -     ",
"    . K.Z.S./ d / / , o / $ 9.X > @ ^ X e X d d `.R G t Q q.v  +@.u.6.'.K .+ .5.o.R V.k J {.    ",
"    . p d.d.L r r / d , X > X X % > $ 3 d / , c ++H.@+ .#+~.$+1.1.= 5.3.%+&+j.k +.2.| a *.-     ",
"    . p L.K.' , g , d q e / / d 4 X o > 4 , 4 $ T.Z a $+Q G t $+8.*+U.I E w.N s.5.U k q.x {.    ",
"    . p S.3 ] ( d c e r e d X / 4 e , X ^ ^ d.L.x.! t  .b.b.N h =+-+;+I w.%+f.` 0 t.w x [.-     ",
"      . d.d p / ( ' ) , d e X / c , X ; > ( @ 3 >+* G W.,+j. .j.:.'+)+n.!+~+%+Q u w k {+{.      ",
"      . S.d.S.^ d ( e ( e , ' @ $ < , / L.( ( y ]+p.b.U. .` G R.%+%+:.c.w l ^+!.m b = = -       ",
"      . p d.Y.f ( ; , q ' r , , X B , g 4 4 d @ k./+w = a 1.` #+'+(+_+1.:+I W n.@+k *.2 {.      ",
"        . p K.d.y $ > @ ] / ( d r r / o / ^ q L <+[+$.).b.D &+k }+*.q. .I &.a |+{ = :.+         ",
"        . d.3 p f y ^ ] $ ^ 4 d ( @ c X e e A 5 1+2+1.<.%. +n.j. .c.W 8.).3+2+x [.c.:.{.        ",
"          . S.Z.L.3 3 Y.y 3 X / / 3 L , X Y r ' ].W.4+~+%.t N v v P 5+J w.6+7+%+3+}.+           ",
"          . d.d.S.f f L.r Y ( $ 9.@ @ c 5 : < / 8+` v 9+X.b 0+v = %+W J.!.J E f.=+}.{.          ",
"            . d.d.d.p p / / r _ X ( ; / ( z A z 1+$.~.w w.D ).a a+6+Q W h J.*._+_++             ",
"            . p d.Z.d.f / X e / 4 4 5 % < < Y e ].v h c.G w n.#+J ..Q '+[.b+J.=+:.{.            ",
"              . p p S.Y.d.4 4 c 3 ' 4 L.4 X ) $ c+5+N w.j.Q &+{+d+b.j.#+!.[.V [.+               ",
"                . p 3 Z.Z.f ] $ 4 , / L.d.3 $ L.c+e+1.c.N Q -+~.f+..D :.:.8.[.{.                ",
"                  . Z.p p @ $ L.@ $ @ f L.K.f L.=.x t !.G Q !.Q *+t x 3+f.*.+                   ",
"                    . Z.3 K.L.K.g+] ] L.L.Z.K.f h+<.$+w.<.w = -+b J.5+8.[.{.                    ",
"                      . . p L.p L.L.p p p K.$ @ s #+#+P v 6+t i+6+#+c.{.+                       ",
"                          . . f ] L.L.f L.L.# ] [+n.= '+-+@+i+~.#+{.{.                          ",
"                            K.. . $ f L.] K.f 4 j+k+l+^.k+k+'+{.+                               ",
"                                  . . . S.] 3 ^ s.k | N {.{.{.                                  ",
"                                        . . . . {.{.{.+                                         ",
"                                                                                                ",
"                                                                                                "};
