/* XPM */
static char*kmoon[]={
"16 16 8 1",
"a c #808080",
"# c #a0a0a0",
"f c #6c6c6c",
"c c #303030",
". c None",
"b c #585858",
"d c #dcdcdc",
"e c #ffffff",
"................",
"................",
"......#abbc.....",
".....dabbbbc....",
"....e#fbbbbbc...",
"...ee#fbbbbbbc..",
"..#ee#fbbbbbbb..",
"..#ee#fbbbbbbb..",
"..#ee#fbbbbbbb..",
"..#ee#fbbbbbbb..",
"...ee#fbbbbbbc..",
"....e#fbbbbbc...",
".....dabbbbc....",
"......#abbc.....",
"................",
"................"};
