/* XPM */
static char*mini[]={
"16 16 6 1",
"c c #c0c000",
"d c #808000",
"# c #000000",
"b c #ffffc0",
". c None",
"a c #585858",
".....#####......",
"...##aaabb##....",
"..#aaaaacbbb#...",
".#aaaaaacbbbb#..",
".#aaaaaadbbbb#..",
"#aaaaaaadbbbbb#.",
"#aaaaaaadbbbbb#.",
"#aaaaaaadbbbbb#.",
"#aaaaaaadbbbbb#.",
"#aaaaaaadbbbbb#.",
".#aaaaaadbbbb#..",
".#aaaaaacbbbb#..",
"..#aaaaacbbb#...",
"...##aaabb##....",
".....#####......",
"................"};
