/* XPM */
static char * flag_xpm[] = {
"16 16 3 1",
" 	c None",
".	c #000000000000",
"X	c yellow",
"                ",
" ......         ",
" ..XXXX.        ",
" ..XXXXX..      ",
"  ..XXXXXX..... ",
"  ..XXXXXXXXXX. ",
"  ..XXXXXXXXX.  ",
"  .....XXXXXX.  ",
"   ..  ..XXXXX. ",
"   ..    ..XXXX.",
"   ..      .... ",
"   ..           ",
"    ..          ",
"    ..          ",
"    ..          ",
"                "};
